<svg width="3917" height="2002" viewBox="0 0 3917 2002" fill="none" xmlns="http://www.w3.org/2000/svg">
<path d="M734.487 1493.74C729.286 1497.63 723.88 1501.35 718.843 1505.49C560.107 1636.21 319.79 1632.98 165.067 1496.64C43.8852 1389.92 -9.84609 1255.26 1.86667 1094.07C16.569 892.044 168.835 717.499 367.706 680.682C495.768 656.969 612.65 686.333 715.894 766.848C722.16 771.722 728.549 776.391 740.098 785.032C740.098 766.48 739.73 753.293 740.18 740.106C741.491 700.176 758.691 683.262 798.416 682.566C818.197 682.238 837.977 682.033 857.799 681.992C896.869 681.91 917.673 701.363 917.837 740.515C918.288 874.843 918.124 1009.17 918.165 1143.46C918.165 1281.19 916.609 1418.95 918.533 1556.64C922.055 1810.18 726.87 1971.17 526.77 1996.4C339.243 2020.03 186.486 1956.47 73.9042 1802.57C55.8027 1777.87 41.387 1751.46 51.5026 1719.23C54.0826 1711.04 58.178 1702.44 63.9525 1696.21C99.3774 1658.29 174.2 1659.23 209.707 1697.11C232.927 1721.89 253.65 1750.31 280.679 1770.01C423.895 1874.4 610.807 1837.62 706.352 1699.45C729.942 1665.33 739.607 1626.47 741.245 1585.68C742.432 1555.86 741.491 1526.01 741.491 1496.15C739.197 1495.33 736.945 1494.51 734.651 1493.69L734.487 1493.74ZM743.743 1141.04C743.415 981.2 614.985 852.442 455.675 852.36C301.566 852.237 175.428 982.715 175.838 1141.86C176.248 1300.56 302.999 1426.69 462.104 1426.69C616.5 1426.69 744.03 1297.36 743.702 1141.04H743.743Z" fill="#E00201"/>
<path d="M2870.63 780.036C2909.29 755.709 2943.04 729.499 2980.72 711.643C3133.23 639.442 3326.45 671.836 3453.36 788.186C3625.25 945.735 3662.02 1194 3538.26 1391.23C3467.04 1504.71 3362.04 1573.72 3228.85 1595.75C3102.8 1616.64 2989.64 1585.47 2890.05 1505.53C2884.8 1501.31 2879.68 1497.01 2870.26 1489.27C2870.26 1504.26 2870.47 1515.15 2870.26 1526.01C2869.32 1571.22 2851.02 1589.28 2806.38 1589.08C2785.24 1588.99 2764.07 1589.16 2742.94 1588.5C2714.44 1587.64 2694.7 1568.39 2692.69 1539.81C2692.03 1530.31 2692.36 1520.72 2692.36 1511.18C2692.2 1117.21 2692.03 723.192 2691.87 329.218C2691.87 280.81 2708.01 264.224 2756.5 263.282C2772.18 262.955 2787.87 262.668 2803.55 262.258C2849.87 261.071 2870.63 280.851 2870.67 326.719C2870.76 469.853 2870.67 613.027 2870.67 756.16C2870.67 764.064 2870.67 772.009 2870.67 780.036H2870.63ZM3146.42 1426.45C3306.5 1426.33 3433.5 1299.21 3433.34 1139.36C3433.17 981.078 3304.17 851.295 3147.77 851.951C2992.27 852.647 2863.26 985.091 2863.43 1143.91C2863.59 1298.18 2992.18 1426.57 3146.42 1426.45Z" fill="#E00201"/>
<path d="M2373.45 782.696C2373.45 766.192 2373.08 751.408 2373.53 736.624C2374.52 704.106 2395.12 683.22 2427.67 682.278C2450.85 681.623 2474.08 681.623 2497.26 682.032C2530.47 682.606 2552.17 703.942 2552.22 737.033C2552.5 946.307 2552.46 1155.62 2552.54 1364.89C2552.54 1422.15 2552.99 1479.44 2552.38 1536.7C2552.05 1569.99 2533.42 1587.81 2499.96 1588.38C2476.08 1588.79 2452.21 1588.95 2428.29 1588.58C2397.16 1588.13 2375.83 1567.86 2373.94 1536.65C2373.08 1522.53 2373.78 1508.27 2373.78 1490.75C2367.15 1494.72 2363.09 1496.44 2359.86 1499.14C2197.23 1635.31 1971.57 1637.89 1806.61 1503.97C1673.92 1396.22 1618.63 1255.47 1635.51 1086.45C1653.53 905.762 1791.38 717.744 2005.52 680.312C2135.1 657.665 2251.45 689.895 2354.08 771.885C2357.81 774.874 2361.29 778.151 2365.02 781.058C2365.96 781.795 2367.55 781.632 2373.33 782.696H2373.45ZM1809.89 1138.5C1810.63 1302.36 1936.23 1427.39 2099.27 1426.61C2252.23 1425.87 2381.6 1295.48 2380.05 1143.58C2378.37 978.537 2251 851.704 2087.39 852.113C1937.17 852.482 1809.19 984.557 1809.89 1138.54V1138.5Z" fill="#E00201"/>
<path d="M1228.67 766.274C1274.17 741.907 1315.21 716.106 1359.19 697.267C1430.9 666.552 1506.71 667.085 1582.47 679.698C1616.01 685.268 1630.14 703.615 1630.55 737.689C1630.8 758.125 1631.37 778.601 1630.84 799.037C1629.98 832.578 1610.69 851.171 1576.7 852.113C1540.62 853.096 1504.17 850.967 1468.5 855.431C1342.36 871.116 1251.03 961.05 1233.67 1086.33C1228.76 1121.88 1228.35 1158.24 1228.18 1194.24C1227.69 1304 1228.47 1413.75 1228.47 1523.55C1228.47 1571.55 1210.78 1588.79 1163.19 1588.67C1144.76 1588.62 1126.33 1588.95 1107.9 1588.91C1072.84 1588.87 1051.3 1568.89 1050.85 1533.75C1050.16 1477.85 1050.69 1421.94 1050.69 1366.04C1050.69 1158.77 1050.69 951.508 1050.65 744.282C1050.65 702.182 1070.76 682.237 1113.51 682.155C1131.94 682.155 1150.37 681.951 1168.8 682.237C1207.66 682.893 1227.61 702.837 1228.71 741.907C1228.96 750.507 1228.71 759.108 1228.71 766.274H1228.67Z" fill="#E00201"/>
<path d="M3798.74 383.398C3768.03 412.516 3741.53 437.539 3715.12 462.725C3687.47 489.058 3660.16 515.76 3632.27 541.807C3611.83 560.891 3588.98 564.167 3566.58 552.537C3544.26 540.906 3530.33 516.293 3534.96 491.475C3536.81 481.605 3542.78 470.957 3549.99 463.831C3586.85 427.423 3624.73 392.039 3662.29 356.327C3666.63 352.191 3671.05 348.137 3679.61 340.11C3667.41 339.536 3660.49 338.881 3653.52 338.881C3535.49 339.004 3417.47 339.209 3299.4 339.495C3282.48 339.536 3265.16 338.553 3255.94 322.459C3241.9 297.886 3243.78 270.775 3253.2 245.63C3261.39 223.801 3282.48 222.45 3303.29 222.491C3420.66 222.736 3537.99 222.491 3655.37 222.409C3662.78 222.409 3670.23 222.409 3683.01 222.409C3674.49 213.808 3669.21 208.198 3663.64 202.956C3625.96 167.367 3587.79 132.311 3550.65 96.1894C3530.21 76.2859 3527.67 54.5395 3540.12 31.073C3552.12 8.50756 3576.45 -4.26995 3601.88 1.29975C3611.91 3.51125 3622.48 9.24474 3629.93 16.3707C3719.42 101.35 3808.82 186.451 3896.91 272.905C3907.39 283.184 3915.01 301.408 3915.3 316.152C3916.9 398.592 3916.24 481.113 3915.54 563.553C3915.26 593.777 3898.14 609.79 3868.16 610.855C3861.36 611.1 3854.52 611.018 3847.68 610.855C3814.39 610.24 3798.7 594.842 3798.58 561.874C3798.42 511.419 3798.66 461.005 3798.74 410.55C3798.74 403.383 3798.74 396.257 3798.74 383.398Z" fill="white"/>
<path d="M3740.36 1131.34C3740.36 1001.8 3740.24 872.223 3740.45 742.686C3740.53 700.504 3759.33 682.362 3801.84 682.198C3821.62 682.116 3841.44 681.747 3861.22 682.075C3893.57 682.566 3913.35 701.405 3914.91 733.922C3915.81 752.31 3915.28 770.74 3915.28 789.128C3915.28 1033.21 3915.24 1277.34 3915.15 1521.42C3915.15 1573.8 3899.02 1589.49 3846.43 1588.83C3828.01 1588.59 3809.58 1588.99 3791.15 1588.46C3762.48 1587.64 3743.97 1570.61 3740.61 1542.39C3739.95 1536.98 3739.87 1531.5 3739.87 1526.05C3739.87 1394.46 3739.87 1262.84 3739.87 1131.26C3740.04 1131.26 3740.24 1131.26 3740.41 1131.26L3740.36 1131.34Z" fill="#E00201"/>
</svg>
