<svg width="3917" height="2002" viewBox="0 0 3917 2002" fill="none" xmlns="http://www.w3.org/2000/svg">
<path d="M734.487 1494.03C729.286 1497.92 723.88 1501.65 718.843 1505.78C560.107 1636.51 319.79 1633.27 165.067 1496.94C43.8852 1390.21 -9.84609 1255.55 1.86667 1094.36C16.569 892.336 168.835 717.791 367.706 680.974C495.768 657.261 612.65 686.625 715.894 767.14C722.16 772.014 728.549 776.682 740.098 785.324C740.098 766.772 739.73 753.585 740.18 740.398C741.491 700.468 758.691 683.554 798.416 682.858C818.197 682.53 837.977 682.325 857.799 682.284C896.869 682.202 917.673 701.655 917.837 740.807C918.288 875.135 918.124 1009.46 918.165 1143.75C918.165 1281.48 916.609 1419.25 918.533 1556.93C922.055 1810.48 726.87 1971.47 526.77 1996.69C339.243 2020.32 186.486 1956.76 73.9042 1802.86C55.8027 1778.16 41.387 1751.75 51.5026 1719.52C54.0826 1711.33 58.178 1702.73 63.9525 1696.5C99.3774 1658.58 174.2 1659.52 209.707 1697.4C232.927 1722.18 253.65 1750.6 280.679 1770.3C423.895 1874.69 610.807 1837.92 706.352 1699.74C729.942 1665.62 739.607 1626.76 741.245 1585.97C742.432 1556.15 741.491 1526.3 741.491 1496.44C739.197 1495.62 736.945 1494.81 734.651 1493.99L734.487 1494.03ZM743.743 1141.33C743.415 981.492 614.985 852.734 455.675 852.652C301.566 852.529 175.428 983.007 175.838 1142.15C176.248 1300.85 302.999 1426.99 462.104 1426.99C616.5 1426.99 744.03 1297.65 743.702 1141.33H743.743Z" fill="#E00201"/>
<path d="M2870.63 780.328C2909.29 756.001 2943.04 729.791 2980.72 711.935C3133.23 639.734 3326.45 672.128 3453.36 788.478C3625.25 946.027 3662.02 1194.29 3538.26 1391.52C3467.04 1505 3362.04 1574.01 3228.85 1596.04C3102.8 1616.93 2989.64 1585.76 2890.05 1505.82C2884.8 1501.6 2879.68 1497.3 2870.26 1489.56C2870.26 1504.55 2870.47 1515.45 2870.26 1526.3C2869.32 1571.51 2851.02 1589.57 2806.38 1589.37C2785.24 1589.29 2764.07 1589.45 2742.94 1588.8C2714.44 1587.94 2694.7 1568.69 2692.69 1540.1C2692.03 1530.6 2692.36 1521.02 2692.36 1511.47C2692.2 1117.5 2692.03 723.484 2691.87 329.51C2691.87 281.102 2708.01 264.516 2756.5 263.574C2772.18 263.247 2787.87 262.96 2803.55 262.55C2849.87 261.363 2870.63 281.143 2870.67 327.011C2870.76 470.145 2870.67 613.319 2870.67 756.452C2870.67 764.356 2870.67 772.301 2870.67 780.328H2870.63ZM3146.42 1426.74C3306.5 1426.62 3433.5 1299.5 3433.34 1139.66C3433.17 981.37 3304.17 851.587 3147.77 852.243C2992.27 852.939 2863.26 985.383 2863.43 1144.2C2863.59 1298.47 2992.18 1426.86 3146.42 1426.74Z" fill="#E00201"/>
<path d="M2373.45 782.988C2373.45 766.484 2373.08 751.7 2373.53 736.916C2374.52 704.398 2395.12 683.512 2427.67 682.57C2450.85 681.915 2474.08 681.915 2497.26 682.324C2530.47 682.898 2552.17 704.234 2552.22 737.325C2552.5 946.598 2552.46 1155.91 2552.54 1365.19C2552.54 1422.44 2552.99 1479.73 2552.38 1536.99C2552.05 1570.28 2533.42 1588.1 2499.96 1588.67C2476.08 1589.08 2452.21 1589.24 2428.29 1588.88C2397.16 1588.42 2375.83 1568.15 2373.94 1536.95C2373.08 1522.82 2373.78 1508.57 2373.78 1491.04C2367.15 1495.01 2363.09 1496.73 2359.86 1499.43C2197.23 1635.6 1971.57 1638.18 1806.61 1504.27C1673.92 1396.52 1618.63 1255.76 1635.51 1086.74C1653.53 906.054 1791.38 718.036 2005.52 680.604C2135.1 657.957 2251.45 690.187 2354.08 772.177C2357.81 775.166 2361.29 778.443 2365.02 781.35C2365.96 782.087 2367.55 781.924 2373.33 782.988H2373.45ZM1809.89 1138.79C1810.63 1302.65 1936.23 1427.68 2099.27 1426.9C2252.23 1426.17 2381.6 1295.77 2380.05 1143.87C2378.37 978.829 2251 851.995 2087.39 852.405C1937.17 852.774 1809.19 984.849 1809.89 1138.84V1138.79Z" fill="#E00201"/>
<path d="M1228.67 766.566C1274.17 742.199 1315.21 716.398 1359.19 697.559C1430.9 666.844 1506.71 667.376 1582.47 679.99C1616.01 685.56 1630.14 703.907 1630.55 737.981C1630.8 758.417 1631.37 778.893 1630.84 799.329C1629.98 832.87 1610.69 851.463 1576.7 852.405C1540.62 853.388 1504.17 851.259 1468.5 855.723C1342.36 871.408 1251.03 961.342 1233.67 1086.62C1228.76 1122.17 1228.35 1158.53 1228.18 1194.53C1227.69 1304.29 1228.47 1414.04 1228.47 1523.84C1228.47 1571.84 1210.78 1589.08 1163.19 1588.96C1144.76 1588.92 1126.33 1589.24 1107.9 1589.2C1072.84 1589.16 1051.3 1569.18 1050.85 1534.04C1050.16 1478.14 1050.69 1422.24 1050.69 1366.33C1050.69 1159.07 1050.69 951.8 1050.65 744.574C1050.65 702.474 1070.76 682.529 1113.51 682.447C1131.94 682.447 1150.37 682.243 1168.8 682.529C1207.66 683.185 1227.61 703.129 1228.71 742.199C1228.96 750.799 1228.71 759.4 1228.71 766.566H1228.67Z" fill="#E00201"/>
<path d="M3798.74 383.69C3768.03 412.808 3741.53 437.831 3715.12 463.017C3687.47 489.35 3660.16 516.052 3632.27 542.099C3611.83 561.183 3588.98 564.459 3566.58 552.829C3544.26 541.198 3530.33 516.585 3534.96 491.767C3536.81 481.897 3542.78 471.249 3549.99 464.123C3586.85 427.715 3624.73 392.331 3662.29 356.619C3666.63 352.483 3671.05 348.429 3679.61 340.402C3667.41 339.828 3660.49 339.173 3653.52 339.173C3535.49 339.296 3417.47 339.501 3299.4 339.787C3282.48 339.828 3265.16 338.845 3255.94 322.751C3241.9 298.178 3243.78 271.067 3253.2 245.922C3261.39 224.093 3282.48 222.742 3303.29 222.783C3420.66 223.028 3537.99 222.783 3655.37 222.701C3662.78 222.701 3670.23 222.701 3683.01 222.701C3674.49 214.1 3669.21 208.49 3663.64 203.248C3625.96 167.659 3587.79 132.603 3550.65 96.4814C3530.21 76.5779 3527.67 54.8315 3540.12 31.365C3552.12 8.79955 3576.45 -3.97796 3601.88 1.59174C3611.91 3.80324 3622.48 9.53673 3629.93 16.6627C3719.42 101.642 3808.82 186.743 3896.91 273.197C3907.39 283.476 3915.01 301.7 3915.3 316.444C3916.9 398.884 3916.24 481.405 3915.54 563.845C3915.26 594.069 3898.14 610.082 3868.16 611.147C3861.36 611.392 3854.52 611.31 3847.68 611.147C3814.39 610.532 3798.7 595.134 3798.58 562.166C3798.42 511.711 3798.66 461.297 3798.74 410.842C3798.74 403.675 3798.74 396.549 3798.74 383.69Z" fill="black"/>
<path d="M3740.36 1131.63C3740.36 1002.09 3740.24 872.515 3740.45 742.978C3740.53 700.796 3759.33 682.654 3801.84 682.49C3821.62 682.408 3841.44 682.039 3861.22 682.367C3893.57 682.858 3913.35 701.697 3914.91 734.214C3915.81 752.602 3915.28 771.032 3915.28 789.42C3915.28 1033.5 3915.24 1277.63 3915.15 1521.71C3915.15 1574.09 3899.02 1589.78 3846.43 1589.12C3828.01 1588.88 3809.58 1589.29 3791.15 1588.75C3762.48 1587.94 3743.97 1570.9 3740.61 1542.68C3739.95 1537.28 3739.87 1531.79 3739.87 1526.34C3739.87 1394.76 3739.87 1263.13 3739.87 1131.55C3740.04 1131.55 3740.24 1131.55 3740.41 1131.55L3740.36 1131.63Z" fill="#E00201"/>
</svg>
